<mxfile host="app.diagrams.net" agent="Mozilla/5.0 (Macintosh; Intel Mac OS X 10_15_7) AppleWebKit/537.36 (KHTML, like Gecko) Chrome/137.0.0.0 Safari/537.36" version="27.1.4">
  <diagram id="36RqeXvSD2yGZV3YzJqm" name="taxonomy">
    <mxGraphModel dx="8009" dy="-12417" grid="0" gridSize="10" guides="0" tooltips="1" connect="1" arrows="1" fold="1" page="1" pageScale="1" pageWidth="827" pageHeight="1169" background="none" math="0" shadow="0">
      <root>
        <mxCell id="0" />
        <mxCell id="1" parent="0" />
        <mxCell id="Pxl9jGPm8JQqbag9kE8n-68" value="" style="rounded=1;whiteSpace=wrap;html=1;absoluteArcSize=1;arcSize=14;strokeWidth=2;fillColor=#BAC8D3;strokeColor=none;rotation=0;container=0;align=right;verticalAlign=bottom;spacingBottom=0;labelBackgroundColor=none;spacing=2;spacingRight=58;fontColor=#333333;opacity=30;" parent="1" vertex="1">
          <mxGeometry x="-2287" y="15553" width="492" height="417" as="geometry" />
        </mxCell>
        <mxCell id="Pxl9jGPm8JQqbag9kE8n-71" value="" style="rounded=1;whiteSpace=wrap;html=1;absoluteArcSize=1;arcSize=14;strokeWidth=2;fillColor=#6E6E6E;strokeColor=none;opacity=10;rotation=0;container=0;align=left;verticalAlign=top;spacingTop=0;labelPosition=center;verticalLabelPosition=middle;" parent="1" vertex="1">
          <mxGeometry x="-1678" y="15571" width="125" height="309" as="geometry" />
        </mxCell>
        <mxCell id="Pxl9jGPm8JQqbag9kE8n-72" value="" style="rounded=1;whiteSpace=wrap;html=1;absoluteArcSize=1;arcSize=14;strokeWidth=2;fillColor=#D4E1F5;strokeColor=none;opacity=40;rotation=0;container=0;align=left;verticalAlign=top;spacingTop=0;labelPosition=center;verticalLabelPosition=middle;direction=south;" parent="1" vertex="1">
          <mxGeometry x="-1553" y="15571" width="122" height="308" as="geometry" />
        </mxCell>
        <mxCell id="Pxl9jGPm8JQqbag9kE8n-73" value="" style="rounded=1;whiteSpace=wrap;html=1;absoluteArcSize=1;arcSize=14;strokeWidth=2;fillColor=#C0C0C0;strokeColor=none;opacity=40;rotation=0;container=0;align=left;verticalAlign=top;spacingTop=0;labelPosition=center;verticalLabelPosition=middle;direction=south;" parent="1" vertex="1">
          <mxGeometry x="-1431" y="15571" width="119" height="308" as="geometry" />
        </mxCell>
        <mxCell id="Pxl9jGPm8JQqbag9kE8n-74" value="" style="rounded=1;whiteSpace=wrap;html=1;absoluteArcSize=1;arcSize=14;strokeWidth=2;fillColor=#FBFCFF;strokeColor=none;rotation=0;container=0;align=left;verticalAlign=top;spacingTop=0;labelPosition=center;verticalLabelPosition=middle;direction=south;fontColor=#ffffff;" parent="1" vertex="1">
          <mxGeometry x="-1797" y="15570" width="120" height="311" as="geometry" />
        </mxCell>
        <mxCell id="Pxl9jGPm8JQqbag9kE8n-75" value="" style="rounded=1;whiteSpace=wrap;html=1;absoluteArcSize=1;arcSize=14;strokeWidth=2;fillColor=light-dark(#CEE9ED,#EDEDED);strokeColor=none;rotation=0;container=0;align=left;verticalAlign=top;spacingTop=0;labelPosition=center;verticalLabelPosition=middle;" parent="1" vertex="1">
          <mxGeometry x="-2272" y="15574" width="104" height="307" as="geometry" />
        </mxCell>
        <mxCell id="Pxl9jGPm8JQqbag9kE8n-76" value="" style="rounded=1;whiteSpace=wrap;html=1;absoluteArcSize=1;arcSize=14;strokeWidth=0.5;fillColor=light-dark(#E6D9DF,#EDEDED);strokeColor=none;rotation=0;container=0;align=left;verticalAlign=top;spacingTop=0;labelPosition=center;verticalLabelPosition=middle;" parent="1" vertex="1">
          <mxGeometry x="-2043" y="15574" width="122" height="307" as="geometry" />
        </mxCell>
        <mxCell id="Pxl9jGPm8JQqbag9kE8n-77" value="" style="rounded=1;whiteSpace=wrap;html=1;absoluteArcSize=1;arcSize=14;strokeWidth=2;fillColor=#FFFFED;strokeColor=none;rotation=0;container=0;align=left;verticalAlign=top;spacingTop=0;labelPosition=center;verticalLabelPosition=middle;" parent="1" vertex="1">
          <mxGeometry x="-2168" y="15573" width="124" height="308" as="geometry" />
        </mxCell>
        <mxCell id="Pxl9jGPm8JQqbag9kE8n-78" value="" style="rounded=1;whiteSpace=wrap;html=1;absoluteArcSize=1;arcSize=14;strokeWidth=2;fillColor=#dae8fc;strokeColor=none;rotation=0;container=0;align=left;verticalAlign=top;spacingTop=0;labelPosition=center;verticalLabelPosition=middle;" parent="1" vertex="1">
          <mxGeometry x="-1921" y="15573" width="127" height="308" as="geometry" />
        </mxCell>
        <mxCell id="Pxl9jGPm8JQqbag9kE8n-80" value="&lt;i style=&quot;text-wrap-mode: nowrap;&quot;&gt;Bitcoin&lt;/i&gt;&lt;div style=&quot;text-wrap-mode: nowrap;&quot;&gt;&lt;i&gt;Core&lt;/i&gt;&lt;/div&gt;" style="rounded=1;whiteSpace=wrap;html=1;fillColor=#ffe6cc;strokeWidth=0.5;fontSize=14;strokeColor=#d79b00;" parent="1" vertex="1">
          <mxGeometry x="-2271" y="15657" width="46" height="61" as="geometry" />
        </mxCell>
        <mxCell id="Pxl9jGPm8JQqbag9kE8n-81" value="&lt;span style=&quot;text-wrap-mode: nowrap;&quot;&gt;&lt;i&gt;Atomic&lt;/i&gt;&lt;/span&gt;" style="rounded=1;whiteSpace=wrap;html=1;fillColor=#ffe6cc;strokeWidth=0.5;fontSize=14;strokeColor=#d79b00;" parent="1" vertex="1">
          <mxGeometry x="-2255" y="15606" width="147" height="14" as="geometry" />
        </mxCell>
        <mxCell id="Pxl9jGPm8JQqbag9kE8n-82" value="&lt;span style=&quot;text-wrap-mode: nowrap;&quot;&gt;&lt;i&gt;Exodus&lt;/i&gt;&lt;/span&gt;" style="rounded=1;whiteSpace=wrap;html=1;fillColor=#ffe6cc;strokeWidth=0.5;fontSize=14;strokeColor=#d79b00;" parent="1" vertex="1">
          <mxGeometry x="-2255" y="15591" width="147" height="12" as="geometry" />
        </mxCell>
        <mxCell id="Pxl9jGPm8JQqbag9kE8n-83" value="&lt;font&gt;&lt;b&gt;Desktop&lt;/b&gt;&lt;/font&gt;" style="text;html=1;align=center;verticalAlign=middle;resizable=0;points=[];autosize=1;strokeColor=none;fillColor=none;fontColor=#CC6600;labelBackgroundColor=none;fontSize=16;" parent="1" vertex="1">
          <mxGeometry x="-2260" y="15565" width="81" height="31" as="geometry" />
        </mxCell>
        <mxCell id="Pxl9jGPm8JQqbag9kE8n-85" value="&lt;font&gt;&lt;b&gt;Software&lt;/b&gt;&lt;/font&gt;" style="text;html=1;align=center;verticalAlign=middle;resizable=0;points=[];autosize=1;strokeColor=none;fillColor=none;fontColor=#CC6600;labelBackgroundColor=none;fontSize=18;" parent="1" vertex="1">
          <mxGeometry x="-2084" y="15940" width="94" height="34" as="geometry" />
        </mxCell>
        <mxCell id="Pxl9jGPm8JQqbag9kE8n-86" value="" style="endArrow=none;html=1;rounded=0;exitX=0.46;exitY=0.139;exitDx=0;exitDy=0;strokeColor=#82B366;strokeWidth=0.5;entryX=0.99;entryY=1;entryDx=0;entryDy=0;entryPerimeter=0;exitPerimeter=0;" parent="1" source="Pxl9jGPm8JQqbag9kE8n-126" edge="1">
          <mxGeometry width="50" height="50" relative="1" as="geometry">
            <mxPoint x="-2052" y="15929" as="sourcePoint" />
            <mxPoint x="-1830.66" y="15929" as="targetPoint" />
          </mxGeometry>
        </mxCell>
        <mxCell id="Pxl9jGPm8JQqbag9kE8n-87" value="&lt;font&gt;&lt;b&gt;Hardware&lt;/b&gt;&lt;/font&gt;" style="text;html=1;align=center;verticalAlign=middle;resizable=0;points=[];autosize=1;strokeColor=none;fillColor=none;fontColor=#82B366;labelBackgroundColor=none;fontSize=18;" parent="1" vertex="1">
          <mxGeometry x="-1592" y="15935" width="100" height="34" as="geometry" />
        </mxCell>
        <mxCell id="Pxl9jGPm8JQqbag9kE8n-88" value="&lt;b&gt;Contract&lt;/b&gt;&lt;br&gt;&lt;div&gt;&lt;br&gt;&lt;/div&gt;" style="text;html=1;align=center;verticalAlign=middle;resizable=0;points=[];autosize=1;strokeColor=none;fillColor=none;fontColor=#CC6600;labelBackgroundColor=none;fontSize=16;" parent="1" vertex="1">
          <mxGeometry x="-1899" y="15569" width="84" height="50" as="geometry" />
        </mxCell>
        <mxCell id="Pxl9jGPm8JQqbag9kE8n-91" value="&lt;span style=&quot;text-wrap-mode: nowrap;&quot;&gt;&lt;i&gt;Zengo&lt;/i&gt;&lt;/span&gt;" style="rounded=1;whiteSpace=wrap;html=1;fillColor=#ffe6cc;strokeWidth=0.5;dashed=1;dashPattern=8 8;fontSize=14;strokeColor=#d79b00;" parent="1" vertex="1">
          <mxGeometry x="-2148" y="15752" width="85" height="16" as="geometry" />
        </mxCell>
        <mxCell id="Pxl9jGPm8JQqbag9kE8n-92" value="&lt;span style=&quot;text-wrap-mode: nowrap;&quot;&gt;&lt;i&gt;Web3auth&lt;/i&gt;&lt;/span&gt;" style="rounded=1;whiteSpace=wrap;html=1;fillColor=#ffe6cc;strokeWidth=0.5;dashed=1;dashPattern=8 8;fontSize=14;strokeColor=#d79b00;" parent="1" vertex="1">
          <mxGeometry x="-2148" y="15774" width="85" height="18" as="geometry" />
        </mxCell>
        <mxCell id="Pxl9jGPm8JQqbag9kE8n-93" value="&lt;i style=&quot;text-wrap-mode: nowrap;&quot;&gt;Phantom&lt;/i&gt;" style="rounded=1;whiteSpace=wrap;html=1;fillColor=#ffe6cc;strokeWidth=0.5;fontSize=14;strokeColor=#d79b00;" parent="1" vertex="1">
          <mxGeometry x="-2037" y="15710" width="100" height="24" as="geometry" />
        </mxCell>
        <mxCell id="Pxl9jGPm8JQqbag9kE8n-94" value="&lt;span&gt;&lt;b&gt;Mobile&lt;/b&gt;&lt;/span&gt;" style="text;html=1;align=center;verticalAlign=middle;resizable=0;points=[];autosize=1;strokeColor=none;fillColor=none;fontColor=#CC6600;labelBackgroundColor=none;fontSize=16;" parent="1" vertex="1">
          <mxGeometry x="-2180" y="15565" width="69" height="31" as="geometry" />
        </mxCell>
        <mxCell id="Pxl9jGPm8JQqbag9kE8n-95" value="&lt;span&gt;&lt;b&gt;Browser&lt;/b&gt;&lt;/span&gt;" style="text;html=1;align=center;verticalAlign=middle;resizable=0;points=[];autosize=1;strokeColor=none;fillColor=none;fontColor=#CC6600;labelBackgroundColor=none;fontSize=16;" parent="1" vertex="1">
          <mxGeometry x="-2023" y="15568" width="82" height="31" as="geometry" />
        </mxCell>
        <mxCell id="Pxl9jGPm8JQqbag9kE8n-96" value="&lt;i style=&quot;text-wrap-mode: nowrap;&quot;&gt;Metasmask&lt;/i&gt;" style="rounded=1;whiteSpace=wrap;html=1;fillColor=#ffe6cc;strokeWidth=0.5;fontSize=14;strokeColor=#d79b00;" parent="1" vertex="1">
          <mxGeometry x="-2038" y="15682" width="100" height="23" as="geometry" />
        </mxCell>
        <mxCell id="Pxl9jGPm8JQqbag9kE8n-97" value="&lt;i style=&quot;text-wrap-mode: nowrap;&quot;&gt;Brave&lt;/i&gt;" style="rounded=1;whiteSpace=wrap;html=1;fillColor=#ffe6cc;strokeWidth=0.5;fontSize=14;strokeColor=#d79b00;" parent="1" vertex="1">
          <mxGeometry x="-2217" y="15646" width="38" height="36" as="geometry" />
        </mxCell>
        <mxCell id="Pxl9jGPm8JQqbag9kE8n-101" value="&lt;span style=&quot;text-wrap-mode: nowrap;&quot;&gt;&lt;i&gt;Ngrave&lt;/i&gt;&lt;/span&gt;" style="rounded=1;whiteSpace=wrap;html=1;fillColor=#ffe6cc;strokeWidth=0.5;fontSize=14;strokeColor=#d79b00;" parent="1" vertex="1">
          <mxGeometry x="-1400" y="15603" width="65" height="36" as="geometry" />
        </mxCell>
        <mxCell id="Pxl9jGPm8JQqbag9kE8n-108" value="&lt;span style=&quot;text-wrap-mode: nowrap;&quot;&gt;&lt;i&gt;Binance&lt;/i&gt;&lt;/span&gt;&lt;div&gt;&lt;span style=&quot;text-wrap-mode: nowrap;&quot;&gt;&lt;i&gt;Web3&lt;/i&gt;&lt;/span&gt;&lt;/div&gt;" style="rounded=1;whiteSpace=wrap;html=1;fillColor=#ffe6cc;strokeWidth=0.5;dashed=1;dashPattern=8 8;fontSize=14;strokeColor=#d79b00;" parent="1" vertex="1">
          <mxGeometry x="-2148" y="15799" width="86" height="34" as="geometry" />
        </mxCell>
        <mxCell id="Pxl9jGPm8JQqbag9kE8n-109" value="&lt;span&gt;&lt;b&gt;USB&lt;/b&gt;&lt;/span&gt;" style="text;html=1;align=center;verticalAlign=middle;resizable=0;points=[];autosize=1;strokeColor=none;fillColor=none;fontColor=#82B366;labelBackgroundColor=none;fontSize=16;" parent="1" vertex="1">
          <mxGeometry x="-1642" y="15566" width="52" height="31" as="geometry" />
        </mxCell>
        <mxCell id="Pxl9jGPm8JQqbag9kE8n-110" value="&lt;span&gt;&lt;b&gt;Bluetooth&lt;/b&gt;&lt;/span&gt;" style="text;html=1;align=center;verticalAlign=middle;resizable=0;points=[];autosize=1;strokeColor=none;fillColor=none;fontColor=#82B366;labelBackgroundColor=none;fontSize=16;" parent="1" vertex="1">
          <mxGeometry x="-1782.48" y="15566" width="93" height="31" as="geometry" />
        </mxCell>
        <mxCell id="Pxl9jGPm8JQqbag9kE8n-111" value="&lt;span&gt;&lt;b&gt;NFC&lt;/b&gt;&lt;/span&gt;" style="text;html=1;align=center;verticalAlign=middle;resizable=0;points=[];autosize=1;strokeColor=none;fillColor=none;fontColor=#82B366;labelBackgroundColor=none;fontSize=16;" parent="1" vertex="1">
          <mxGeometry x="-1520" y="15564" width="51" height="31" as="geometry" />
        </mxCell>
        <mxCell id="Pxl9jGPm8JQqbag9kE8n-115" value="&lt;span style=&quot;text-wrap-mode: nowrap;&quot;&gt;&lt;i&gt;Coldcard MK4&lt;/i&gt;&lt;/span&gt;" style="rounded=1;whiteSpace=wrap;html=1;fillColor=#ffe6cc;strokeWidth=0.5;fontSize=14;strokeColor=#d79b00;" parent="1" vertex="1">
          <mxGeometry x="-1633" y="15601" width="147" height="29" as="geometry" />
        </mxCell>
        <mxCell id="Pxl9jGPm8JQqbag9kE8n-116" value="&lt;span style=&quot;text-wrap-mode: nowrap;&quot;&gt;&lt;i&gt;KeyStone&lt;/i&gt;&lt;/span&gt;" style="rounded=1;whiteSpace=wrap;html=1;fillColor=#ffe6cc;strokeWidth=0.5;fontSize=14;strokeColor=#d79b00;" parent="1" vertex="1">
          <mxGeometry x="-1402" y="15700" width="69" height="36" as="geometry" />
        </mxCell>
        <mxCell id="Pxl9jGPm8JQqbag9kE8n-117" value="&lt;i style=&quot;text-wrap-mode: nowrap;&quot;&gt;Tangem&lt;/i&gt;" style="rounded=1;whiteSpace=wrap;html=1;fillColor=#ffe6cc;strokeWidth=0.5;fontSize=14;strokeColor=#d79b00;" parent="1" vertex="1">
          <mxGeometry x="-1530" y="15653" width="69" height="63" as="geometry" />
        </mxCell>
        <mxCell id="Pxl9jGPm8JQqbag9kE8n-119" value="&lt;span style=&quot;text-wrap-mode: nowrap;&quot;&gt;&lt;i&gt;Ellipal&lt;/i&gt;&lt;/span&gt;" style="rounded=1;whiteSpace=wrap;html=1;fillColor=#ffe6cc;strokeWidth=0.5;fontSize=14;strokeColor=#d79b00;" parent="1" vertex="1">
          <mxGeometry x="-1401" y="15651" width="68" height="36" as="geometry" />
        </mxCell>
        <mxCell id="Pxl9jGPm8JQqbag9kE8n-121" value="" style="rounded=1;whiteSpace=wrap;html=1;fillColor=#ffe6cc;strokeWidth=0.5;strokeColor=#d79b00;" parent="1" vertex="1">
          <mxGeometry x="-2250.74" y="15933" width="12" height="11" as="geometry" />
        </mxCell>
        <mxCell id="Pxl9jGPm8JQqbag9kE8n-122" value="" style="rounded=1;whiteSpace=wrap;html=1;fillColor=#ffe6cc;strokeWidth=0.5;dashed=1;dashPattern=8 8;strokeColor=#d79b00;" parent="1" vertex="1">
          <mxGeometry x="-2250.74" y="15948" width="12" height="11" as="geometry" />
        </mxCell>
        <mxCell id="Pxl9jGPm8JQqbag9kE8n-123" value="Single" style="text;html=1;align=center;verticalAlign=middle;resizable=0;points=[];autosize=1;strokeColor=none;fillColor=none;fontSize=12;" parent="1" vertex="1">
          <mxGeometry x="-2240.74" y="15926" width="51" height="26" as="geometry" />
        </mxCell>
        <mxCell id="Pxl9jGPm8JQqbag9kE8n-124" value="Multiple" style="text;html=1;align=center;verticalAlign=middle;resizable=0;points=[];autosize=1;strokeColor=none;fillColor=none;fontSize=12;" parent="1" vertex="1">
          <mxGeometry x="-2241.74" y="15941" width="59" height="26" as="geometry" />
        </mxCell>
        <mxCell id="Pxl9jGPm8JQqbag9kE8n-125" value="&lt;font style=&quot;color: rgb(77, 77, 77); font-size: 20px;&quot;&gt;&lt;b style=&quot;&quot;&gt;CUSTODY&lt;/b&gt;&lt;/font&gt;" style="text;html=1;align=center;verticalAlign=middle;resizable=0;points=[];autosize=1;strokeColor=none;fillColor=none;fontColor=#0000CC;labelBackgroundColor=default;rotation=-90;" parent="1" vertex="1">
          <mxGeometry x="-2367" y="15755" width="115" height="36" as="geometry" />
        </mxCell>
        <mxCell id="Pxl9jGPm8JQqbag9kE8n-126" value="&lt;font style=&quot;color: rgb(77, 77, 77); font-size: 20px;&quot;&gt;&lt;b style=&quot;&quot;&gt;INFRASTRUCTURE&lt;/b&gt;&lt;/font&gt;" style="text;html=1;align=center;verticalAlign=middle;resizable=0;points=[];autosize=1;strokeColor=none;fillColor=none;fontColor=#0000CC;labelBackgroundColor=default;rotation=0;" parent="1" vertex="1">
          <mxGeometry x="-1882" y="15966" width="202" height="36" as="geometry" />
        </mxCell>
        <mxCell id="Pxl9jGPm8JQqbag9kE8n-127" value="&lt;font style=&quot;color: rgb(77, 77, 77);&quot;&gt;&lt;b&gt;DISTRIBUTION&lt;/b&gt;&lt;/font&gt;" style="text;html=1;align=center;verticalAlign=middle;resizable=0;points=[];autosize=1;strokeColor=none;fillColor=none;fontColor=#0000CC;labelBackgroundColor=none;rotation=0;fontSize=12;" parent="1" vertex="1">
          <mxGeometry x="-2270.74" y="15911" width="103" height="26" as="geometry" />
        </mxCell>
        <mxCell id="Pxl9jGPm8JQqbag9kE8n-128" value="&lt;font&gt;&lt;b&gt;Custodial&lt;/b&gt;&lt;/font&gt;" style="text;html=1;align=center;verticalAlign=middle;resizable=0;points=[];autosize=1;strokeColor=none;fillColor=none;fontColor=#7EA6E0;labelBackgroundColor=none;rotation=-90;fontSize=18;" parent="1" vertex="1">
          <mxGeometry x="-2332" y="15886" width="100" height="34" as="geometry" />
        </mxCell>
        <mxCell id="Pxl9jGPm8JQqbag9kE8n-129" value="&lt;font&gt;&lt;b&gt;Shared&lt;/b&gt;&lt;/font&gt;" style="text;html=1;align=center;verticalAlign=middle;resizable=0;points=[];autosize=1;strokeColor=none;fillColor=none;fontColor=#CC00CC;labelBackgroundColor=none;rotation=-90;fontSize=18;" parent="1" vertex="1">
          <mxGeometry x="-2321" y="15779" width="79" height="34" as="geometry" />
        </mxCell>
        <mxCell id="Pxl9jGPm8JQqbag9kE8n-130" value="&lt;font&gt;&lt;b&gt;Non Custodial&lt;/b&gt;&lt;/font&gt;" style="text;html=1;align=center;verticalAlign=middle;resizable=0;points=[];autosize=1;strokeColor=none;fillColor=none;fontColor=#0000CC;labelBackgroundColor=none;rotation=-90;fontSize=18;" parent="1" vertex="1">
          <mxGeometry x="-2350" y="15632" width="140" height="34" as="geometry" />
        </mxCell>
        <mxCell id="7dPxF6uavL-8BtRlLhym-129" value="&lt;span&gt;&lt;b&gt;QR Code&lt;/b&gt;&lt;/span&gt;" style="text;html=1;align=center;verticalAlign=middle;resizable=0;points=[];autosize=1;strokeColor=none;fillColor=none;fontColor=#82B366;labelBackgroundColor=none;fontSize=16;" parent="1" vertex="1">
          <mxGeometry x="-1401" y="15566" width="86" height="31" as="geometry" />
        </mxCell>
        <mxCell id="7dPxF6uavL-8BtRlLhym-133" value="&lt;i style=&quot;text-wrap-mode: nowrap;&quot;&gt;KeepKey&lt;/i&gt;" style="rounded=1;whiteSpace=wrap;html=1;fillColor=#ffe6cc;strokeWidth=0.5;fontSize=14;strokeColor=#d79b00;" parent="1" vertex="1">
          <mxGeometry x="-1650" y="15673" width="69" height="26" as="geometry" />
        </mxCell>
        <mxCell id="7dPxF6uavL-8BtRlLhym-135" value="&lt;i style=&quot;text-wrap-mode: nowrap;&quot;&gt;Trezor&lt;/i&gt;" style="rounded=1;whiteSpace=wrap;html=1;fillColor=#ffe6cc;strokeWidth=0.5;fontSize=14;strokeColor=#d79b00;" parent="1" vertex="1">
          <mxGeometry x="-1650" y="15640" width="69" height="26" as="geometry" />
        </mxCell>
        <mxCell id="7dPxF6uavL-8BtRlLhym-136" value="&lt;i style=&quot;text-wrap-mode: nowrap;&quot;&gt;Ledger&lt;/i&gt;" style="rounded=1;whiteSpace=wrap;html=1;fillColor=#ffe6cc;strokeWidth=0.5;fontSize=14;strokeColor=#d79b00;" parent="1" vertex="1">
          <mxGeometry x="-1786" y="15707" width="205" height="27" as="geometry" />
        </mxCell>
        <mxCell id="7dPxF6uavL-8BtRlLhym-137" value="&lt;span style=&quot;text-wrap-mode: nowrap;&quot;&gt;&lt;i&gt;Cool&lt;/i&gt;&lt;/span&gt;&lt;div&gt;&lt;span style=&quot;text-wrap-mode: nowrap;&quot;&gt;&lt;i&gt;Wallet S&lt;/i&gt;&lt;/span&gt;&lt;/div&gt;" style="rounded=1;whiteSpace=wrap;html=1;fillColor=#ffe6cc;strokeWidth=0.5;fontSize=14;strokeColor=#d79b00;" parent="1" vertex="1">
          <mxGeometry x="-1774" y="15601" width="69" height="63" as="geometry" />
        </mxCell>
        <mxCell id="7dPxF6uavL-8BtRlLhym-142" value="&lt;span style=&quot;text-wrap-mode: nowrap;&quot;&gt;&lt;i&gt;Safe&lt;/i&gt;&lt;/span&gt;" style="rounded=1;whiteSpace=wrap;html=1;fillColor=#ffe6cc;strokeWidth=0.5;fontSize=14;strokeColor=#d79b00;" parent="1" vertex="1">
          <mxGeometry x="-1892" y="15672" width="69" height="63" as="geometry" />
        </mxCell>
        <mxCell id="7dPxF6uavL-8BtRlLhym-143" value="&lt;span style=&quot;text-wrap-mode: nowrap;&quot;&gt;&lt;i&gt;Argent&lt;/i&gt;&lt;/span&gt;" style="rounded=1;whiteSpace=wrap;html=1;fillColor=#ffe6cc;strokeWidth=0.5;fontSize=14;strokeColor=#d79b00;" parent="1" vertex="1">
          <mxGeometry x="-1886" y="15600" width="69" height="63" as="geometry" />
        </mxCell>
        <mxCell id="7dPxF6uavL-8BtRlLhym-148" value="&lt;span style=&quot;text-wrap-mode: nowrap;&quot;&gt;&lt;i&gt;Brave&lt;/i&gt;&lt;/span&gt;" style="rounded=1;whiteSpace=wrap;html=1;fillColor=#ffe6cc;strokeWidth=0.5;fontSize=14;strokeColor=#d79b00;" parent="1" vertex="1">
          <mxGeometry x="-2012" y="15600" width="69" height="63" as="geometry" />
        </mxCell>
        <mxCell id="7dPxF6uavL-8BtRlLhym-152" value="" style="rounded=0;whiteSpace=wrap;html=1;fillColor=none;" parent="1" vertex="1">
          <mxGeometry x="-2291" y="15553" width="983" height="415" as="geometry" />
        </mxCell>
        <mxCell id="7dPxF6uavL-8BtRlLhym-153" value="" style="rounded=0;whiteSpace=wrap;html=1;fillColor=none;" parent="1" vertex="1">
          <mxGeometry x="-1794" y="15553" width="486" height="415" as="geometry" />
        </mxCell>
        <mxCell id="7dPxF6uavL-8BtRlLhym-154" value="&lt;i style=&quot;text-wrap-mode: nowrap;&quot;&gt;Edge&lt;/i&gt;" style="rounded=1;whiteSpace=wrap;html=1;fillColor=#ffe6cc;strokeWidth=0.5;fontSize=14;strokeColor=#d79b00;" parent="1" vertex="1">
          <mxGeometry x="-2144" y="15654" width="69" height="63" as="geometry" />
        </mxCell>
        <mxCell id="Pxl9jGPm8JQqbag9kE8n-70" value="" style="rounded=1;whiteSpace=wrap;html=1;absoluteArcSize=1;arcSize=14;strokeWidth=1;fillColor=none;strokeColor=#0000CC;rotation=0;container=0;align=right;verticalAlign=bottom;spacingBottom=0;labelBackgroundColor=none;spacing=2;spacingRight=58;fontColor=#333333;" parent="1" vertex="1">
          <mxGeometry x="-2291" y="15553" width="983" height="415" as="geometry" />
        </mxCell>
        <mxCell id="Pxl9jGPm8JQqbag9kE8n-79" value="" style="rounded=1;whiteSpace=wrap;html=1;absoluteArcSize=1;arcSize=14;strokeWidth=1;fillColor=none;strokeColor=#CC00CC;rotation=0;container=0;align=right;verticalAlign=bottom;spacingBottom=0;labelBackgroundColor=none;spacing=2;spacingRight=58;fontColor=#333333;" parent="1" vertex="1">
          <mxGeometry x="-2291" y="15745" width="983" height="99" as="geometry" />
        </mxCell>
        <mxCell id="Pxl9jGPm8JQqbag9kE8n-103" style="edgeStyle=orthogonalEdgeStyle;rounded=0;orthogonalLoop=1;jettySize=auto;html=1;endArrow=diamondThin;endFill=0;strokeWidth=1;strokeColor=#67AB9F;exitX=0.5;exitY=0;exitDx=0;exitDy=0;" parent="1" source="Pxl9jGPm8JQqbag9kE8n-104" target="7dPxF6uavL-8BtRlLhym-142" edge="1">
          <mxGeometry relative="1" as="geometry">
            <mxPoint x="-1893" y="15735" as="targetPoint" />
          </mxGeometry>
        </mxCell>
        <mxCell id="Pxl9jGPm8JQqbag9kE8n-118" style="edgeStyle=orthogonalEdgeStyle;rounded=0;orthogonalLoop=1;jettySize=auto;html=1;entryX=0.241;entryY=1.029;entryDx=0;entryDy=0;entryPerimeter=0;endArrow=diamondThin;endFill=0;startArrow=oval;startFill=0;startSize=3;strokeWidth=1;strokeColor=#67AB9F;" parent="1" source="Pxl9jGPm8JQqbag9kE8n-104" target="7dPxF6uavL-8BtRlLhym-136" edge="1">
          <mxGeometry relative="1" as="geometry">
            <Array as="points">
              <mxPoint x="-1800" y="15793" />
              <mxPoint x="-1737" y="15793" />
            </Array>
            <mxPoint x="-1736.1019999999999" y="15734.74" as="targetPoint" />
          </mxGeometry>
        </mxCell>
        <mxCell id="Pxl9jGPm8JQqbag9kE8n-120" value="&lt;i&gt;&lt;font style=&quot;color: rgb(103, 171, 159);&quot;&gt;&lt;b&gt;leverages infrastructure&lt;/b&gt;&lt;/font&gt;&lt;/i&gt;" style="text;html=1;align=center;verticalAlign=middle;whiteSpace=wrap;rounded=0;fontSize=10;labelBackgroundColor=none;" parent="1" vertex="1">
          <mxGeometry x="-1856" y="15776" width="118" height="19" as="geometry" />
        </mxCell>
        <mxCell id="Pxl9jGPm8JQqbag9kE8n-104" value="&lt;i style=&quot;text-wrap-mode: nowrap;&quot;&gt;ByBit Exchange&lt;/i&gt;" style="rounded=1;whiteSpace=wrap;html=1;fillColor=#ffe6cc;strokeWidth=0.5;dashed=1;dashPattern=8 8;fontSize=14;strokeColor=#d79b00;" parent="1" vertex="1">
          <mxGeometry x="-1904" y="15851" width="208" height="25" as="geometry" />
        </mxCell>
        <mxCell id="7dPxF6uavL-8BtRlLhym-150" value="&lt;i style=&quot;text-wrap-mode: nowrap;&quot;&gt;Binance Exchange&lt;/i&gt;" style="rounded=1;whiteSpace=wrap;html=1;fillColor=#ffe6cc;strokeWidth=0.5;dashed=1;dashPattern=8 8;fontSize=14;strokeColor=#d79b00;" parent="1" vertex="1">
          <mxGeometry x="-1980" y="15884" width="304" height="26" as="geometry" />
        </mxCell>
        <mxCell id="Pxl9jGPm8JQqbag9kE8n-106" value="&lt;span style=&quot;text-wrap-mode: nowrap;&quot;&gt;Coinbase Exchange&lt;/span&gt;" style="rounded=1;whiteSpace=wrap;html=1;fillColor=#ffe6cc;strokeWidth=0.5;dashed=1;dashPattern=8 8;fontSize=14;strokeColor=#d79b00;" parent="1" vertex="1">
          <mxGeometry x="-1982.31" y="15921" width="304" height="26" as="geometry" />
        </mxCell>
      </root>
    </mxGraphModel>
  </diagram>
</mxfile>
